<svg xmlns="http://www.w3.org/2000/svg" width="30" height="30" viewBox="0 0 30 30">
    <path fill="#FFF" fill-rule="evenodd" d="M15 0c8.284 0 15 6.716 15 15 0 8.284-6.716 15-15 15-8.284 0-15-6.716-15-15C0 6.716 6.716 0 15 0zm-2.745 10.5a4.754 4.754 0 0 0-4.766 4.75A4.754 4.754 0 0 0 12.255 20c2.75 0 4.575-1.927 4.575-4.641 0-.313-.034-.55-.075-.788h-4.5V16.2h2.703c-.109.699-.817 2.05-2.703 2.05-1.627 0-2.955-1.344-2.955-3s1.328-3 2.955-3c.926 0 1.546.394 1.9.734l1.293-1.242c-.83-.774-1.906-1.242-3.193-1.242zm8.85 2.714h-1.36v1.357h-1.362v1.358h1.361v1.357h1.362v-1.357h1.362l-1.362-1.358v-1.357z" opacity=".4"/>
</svg>
