<svg xmlns="http://www.w3.org/2000/svg" width="30" height="30" viewBox="0 0 30 30">
    <g fill="#FFF" fill-rule="evenodd">
        <path d="M15 0c8.284 0 15 6.716 15 15 0 8.284-6.716 15-15 15-8.284 0-15-6.716-15-15C0 6.716 6.716 0 15 0zm.938 7h-1.877a42.53 42.53 0 0 0-2.359.048c-.852.04-1.433.174-1.942.372a3.917 3.917 0 0 0-1.417.923A3.927 3.927 0 0 0 7.42 9.76c-.198.508-.333 1.09-.372 1.941-.032.711-.044 1.02-.047 2.36v1.879c.003 1.34.015 1.647.047 2.358.04.852.174 1.433.372 1.942.205.526.478.972.923 1.417.444.445.89.719 1.416.923.51.198 1.09.333 1.942.372.818.037 1.103.047 3.037.048H15c2.173 0 2.444-.01 3.298-.048.851-.04 1.433-.174 1.942-.372a3.914 3.914 0 0 0 1.417-.923c.445-.445.718-.891.923-1.417.197-.509.332-1.09.372-1.942.038-.853.048-1.125.048-3.298s-.01-2.445-.048-3.299c-.04-.851-.175-1.433-.372-1.941a3.926 3.926 0 0 0-.923-1.417 3.91 3.91 0 0 0-1.417-.923c-.51-.198-1.092-.333-1.943-.372a42.503 42.503 0 0 0-2.359-.047z"/>
        <path d="M14.283 8.44v.002H15.923c1.315.003 1.608.014 2.31.046.78.035 1.204.166 1.486.275.373.145.64.319.92.599.28.28.452.546.598.92.11.281.24.705.275 1.485.034.737.044 1.024.047 2.514v1.435c-.003 1.49-.013 1.776-.047 2.514-.035.78-.166 1.203-.275 1.485-.145.373-.319.64-.599.919-.28.28-.546.453-.92.598-.28.11-.705.24-1.485.276-.702.032-.995.043-2.31.046h-1.845a41.438 41.438 0 0 1-2.31-.046c-.78-.036-1.203-.166-1.485-.276a2.478 2.478 0 0 1-.92-.598 2.48 2.48 0 0 1-.6-.92c-.109-.281-.24-.705-.275-1.485a41.453 41.453 0 0 1-.045-2.31v-1.845c.003-1.315.013-1.607.045-2.31.036-.78.166-1.203.276-1.485.145-.373.319-.64.599-.92.28-.28.546-.453.92-.598.282-.11.705-.24 1.485-.276.738-.034 1.024-.044 2.515-.045zm.718 2.452a4.109 4.109 0 1 0 0 8.217 4.109 4.109 0 0 0 0-8.217zm4.27-1.122a.96.96 0 1 0 0 1.92.96.96 0 0 0 0-1.92z"/>
        <path d="M15 12.333a2.667 2.667 0 1 1 0 5.334 2.667 2.667 0 0 1 0-5.334z"/>
    </g>
</svg>
