<svg xmlns="http://www.w3.org/2000/svg" width="30" height="30" viewBox="0 0 30 30">
    <g fill="#FFF" fill-rule="evenodd" opacity=".4">
        <path d="M15 0c8.284 0 15 6.716 15 15 0 8.284-6.716 15-15 15-8.284 0-15-6.716-15-15C0 6.716 6.716 0 15 0zm2.7 15.549a5.247 5.247 0 0 1-5.4 0 1.198 1.198 0 0 0-1.62.357c-.345.53-.18 1.23.369 1.563.725.44 1.512.752 2.328.931l-2.242 2.164a1.107 1.107 0 0 0 0 1.604c.23.221.53.332.831.332.301 0 .602-.11.832-.332L15 20.04l2.204 2.127a1.204 1.204 0 0 0 1.66 0c.46-.443.46-1.161 0-1.604L16.622 18.4a7.664 7.664 0 0 0 2.329-.93 1.111 1.111 0 0 0 .368-1.564 1.199 1.199 0 0 0-1.62-.357zM14.99 7.5c-2.212 0-4.01 1.736-4.01 3.871 0 2.134 1.798 3.87 4.01 3.87 2.212 0 4.01-1.736 4.01-3.87C19 9.236 17.202 7.5 14.99 7.5z"/>
        <path d="M14.99 9.769c.915 0 1.66.718 1.66 1.602 0 .883-.745 1.602-1.66 1.602-.915 0-1.66-.719-1.66-1.602 0-.884.745-1.602 1.66-1.602z"/>
    </g>
</svg>
