<svg xmlns="http://www.w3.org/2000/svg" width="132" height="87" viewBox="0 0 132 87">
    <g fill="none" fill-rule="nonzero">
        <path fill="#FF5F00" d="M48.37 15.14h34.66v56.61H48.37z"/>
        <path fill="#EB001B" d="M51.94 43.45a35.94 35.94 0 0 1 13.75-28.3c-14.76-11.6-35.956-9.91-48.693 3.881-12.736 13.792-12.736 35.056 0 48.848C29.734 81.67 50.93 83.359 65.69 71.76a35.94 35.94 0 0 1-13.75-28.31z"/>
        <path fill="#F79E1B" d="M120.5 65.76V64.6h.5v-.24h-1.19v.24h.47v1.16h.22zm2.31 0v-1.4h-.36l-.42 1-.42-1h-.36v1.4h.26V64.7l.39.91h.27l.39-.91v1.06h.25zM123.94 43.45a36 36 0 0 1-58.25 28.3 36 36 0 0 0 0-56.61 36 36 0 0 1 58.25 28.3v.01z"/>
    </g>
</svg>
