<svg xmlns="http://www.w3.org/2000/svg" width="60" height="17" viewBox="0 0 60 17">
    <defs>
        <linearGradient id="a" x1="-.18%" y1="50%" y2="50%">
            <stop offset="0%" stop-color="#00B4E6"/>
            <stop offset="100%" stop-color="#088CCB"/>
        </linearGradient>
    </defs>
    <g fill="none" fill-rule="evenodd">
        <path fill="url(#a)" d="M53.265 0H41.878c.612 3.764 4.285 7.286 8.326 7.286h9.061c.123-.365.123-.85.123-1.215 0-3.4-2.694-6.071-6.123-6.071z"/>
        <path fill="#4DB45F" d="M42.857 7.893V17h5.51v-4.857h4.898c2.694 0 5.02-1.822 5.755-4.25H42.857zM23.265 0v17h4.898s1.225 0 1.837-1.214l4.286-8.5h.612V17h5.51V0H35.51s-1.224.121-1.837 1.214l-4.285 8.5h-.612V0h-5.51zM0 17V0h5.51s1.592 0 2.45 2.429c2.203 6.435 2.448 7.285 2.448 7.285s.49-1.578 2.45-7.285C13.713 0 15.305 0 15.305 0h5.51v17h-5.51V7.893h-.612L11.633 17h-2.45l-3.06-9.107H5.51V17H0z"/>
    </g>
</svg>
