<svg xmlns="http://www.w3.org/2000/svg" width="60" height="20" viewBox="0 0 60 20">
    <g fill="none" fill-rule="nonzero">
        <path fill="#00579F" d="M25.975 19.69H21.12L24.157.35h4.855zM43.578.823C42.62.433 41.1 0 39.223 0c-4.796 0-8.172 2.633-8.193 6.398-.04 2.778 2.418 4.32 4.256 5.247 1.878.946 2.517 1.564 2.517 2.408-.02 1.295-1.518 1.893-2.916 1.893-1.939 0-2.978-.308-4.556-1.03l-.64-.308-.68 4.341c1.14.535 3.238 1.009 5.416 1.03 5.095 0 8.412-2.593 8.452-6.605.02-2.202-1.279-3.889-4.076-5.267-1.699-.885-2.739-1.482-2.739-2.387.02-.823.88-1.666 2.797-1.666 1.579-.042 2.739.35 3.617.74l.44.206.66-4.177zM50.032 12.839c.4-1.111 1.938-5.411 1.938-5.411-.02.041.4-1.132.64-1.852l.338 1.667s.92 4.629 1.12 5.596h-4.036zM56.025.351H52.27c-1.158 0-2.038.349-2.537 1.604L42.519 19.69h5.095l1.019-2.901h6.234c.14.679.58 2.901.58 2.901h4.496L56.025.35zM17.064.35l-4.756 13.188-.52-2.674c-.879-3.086-3.636-6.44-6.713-8.107L9.431 19.67h5.135L22.198.35h-5.134z"/>
        <path fill="#FAA61A" d="M7.892.35H.08L0 .742c6.094 1.605 10.13 5.474 11.789 10.124L10.09 1.976C9.81.741 8.951.391 7.892.351z"/>
    </g>
</svg>
