<?xml version="1.0" encoding="utf-8"?>
<!-- Svg Vector Icons : http://www.onlinewebfonts.com/icon -->
<svg version="1.1" xmlns="http://www.w3.org/2000/svg" xmlns:xlink="http://www.w3.org/1999/xlink" x="0px" y="0px" viewBox="0 0 1000 1000" enable-background="new 0 0 1000 1000" xml:space="preserve">
<g><g transform="translate(0.000000,512.000000) scale(0.100000,-0.100000)"><path fill="#737373" d="M521.2,4986.1c-187.6-65.1-325.5-204.8-390.6-394.4c-28.7-82.3-30.6-478.6-30.6-4472.4c0-3980.3,1.9-4390,30.6-4478.1c47.9-145.5,151.2-268,294.8-346.5l124.4-68.9h4451.3h4451.3l86.2,46c145.5,76.6,220.2,147.4,289.1,273.8l65.1,120.6v2129c0,2119.4,0,2129-40.2,2180.7c-97.7,130.2-101.5,132.1-562.9,132.1c-461.4,0-465.2-1.9-562.9-132.1c-40.2-51.7-40.2-68.9-45.9-1793.9l-3.8-1740.3H5001.2H1325.3V117.4v3675.9l1738.4,3.8l1740.3,5.7l70.8,55.5c120.6,90,130.2,134,122.5,576.3c-5.7,426.9-9.6,438.4-137.8,534.2c-51.7,40.2-65.1,40.2-2151.9,44C837.1,5016.7,597.8,5012.9,521.2,4986.1z"/><path d="M6408.4,4991.8c-80.4-34.5-158.9-132.1-174.2-212.5c-30.6-166.6-30.6-166.6,597.3-794.5l582-583.9L5855.1,1840.5C4139.7,123.2,4225.8,220.8,4275.6,37c17.2-68.9,68.9-130.2,291-354.2c224-222.1,285.3-273.8,354.2-291C5104.6-658,5007-744.1,6724.3,971.3l1560.4,1558.4l583.9-582c628-628,628-628,794.5-597.3c90,17.2,195.3,113,220.2,199.1c15.3,47.9,19.1,583.9,15.3,1673.3c-5.7,1583.3-5.7,1602.5-45.9,1654.2c-21.1,28.7-63.2,70.8-91.9,91.9c-51.7,40.2-68.9,40.2-1673.3,44C6768.3,5016.7,6454.4,5012.9,6408.4,4991.8z"/></g></g>
</svg>
