<svg xmlns="http://www.w3.org/2000/svg" width="30" height="24" viewBox="0 0 30 24">
    <path fill="#E3008C" fill-rule="nonzero" d="M.074 11.084V0h12.192v8.867c0 4.877-1.404 8.571-4.138 11.158-1.921 1.773-4.507 3.03-7.832 3.768L0 19.36c2.66-.813 4.507-1.995 5.542-3.547.813-1.182 1.182-2.808 1.182-4.655H.074v-.074zm17.586 0V0H30l-.074 8.867c0 4.877-1.404 8.571-4.138 11.158-1.921 1.773-4.507 3.03-7.832 3.768l-.296-4.433c2.734-.813 4.581-1.995 5.616-3.547.813-1.182 1.182-2.808 1.182-4.655H17.66v-.074z" opacity=".2"/>
</svg>
